<svg width="17" height="24" viewBox="0 0 17 24" fill="none" xmlns="http://www.w3.org/2000/svg">
<path d="M1.5 5C1.5 4.07174 1.86875 3.1815 2.52513 2.52513C3.18151 1.86875 4.07174 1.5 5 1.5H8.5V8.5H5C4.07174 8.5 3.18151 8.13125 2.52513 7.47487C1.86875 6.81849 1.5 5.92826 1.5 5Z" stroke="white" stroke-width="2" stroke-linecap="round" stroke-linejoin="round"/>
<path d="M8.5 1.5H12C12.4597 1.5 12.9148 1.59053 13.3394 1.76642C13.764 1.94232 14.1498 2.20012 14.4748 2.52513C14.7999 2.85014 15.0577 3.23597 15.2335 3.66061C15.4095 4.08525 15.5 4.54037 15.5 5C15.5 5.45963 15.4095 5.91475 15.2335 6.33939C15.0577 6.76403 14.7999 7.14986 14.4748 7.47487C14.1498 7.79988 13.764 8.05768 13.3394 8.23358C12.9148 8.40947 12.4597 8.5 12 8.5H8.5V1.5Z" stroke="white" stroke-width="2" stroke-linecap="round" stroke-linejoin="round"/>
<path d="M8.5 12C8.5 11.5403 8.59053 11.0852 8.76647 10.6606C8.94228 10.236 9.20012 9.85018 9.52515 9.52513C9.85018 9.20012 10.236 8.94232 10.6606 8.76642C11.0852 8.59053 11.5403 8.5 12 8.5C12.4597 8.5 12.9148 8.59053 13.3394 8.76642C13.764 8.94232 14.1498 9.20012 14.4748 9.52513C14.7999 9.85018 15.0577 10.236 15.2335 10.6606C15.4095 11.0852 15.5 11.5403 15.5 12C15.5 12.4597 15.4095 12.9148 15.2335 13.3394C15.0577 13.764 14.7999 14.1498 14.4748 14.4748C14.1498 14.7999 13.764 15.0577 13.3394 15.2335C12.9148 15.4095 12.4597 15.5 12 15.5C11.5403 15.5 11.0852 15.4095 10.6606 15.2335C10.236 15.0577 9.85018 14.7999 9.52515 14.4748C9.20012 14.1498 8.94228 13.764 8.76647 13.3394C8.59053 12.9148 8.5 12.4597 8.5 12Z" stroke="white" stroke-width="2" stroke-linecap="round" stroke-linejoin="round"/>
<path d="M1.5 19C1.5 18.0718 1.86875 17.1815 2.52513 16.5252C3.18151 15.8688 4.07174 15.5 5 15.5H8.5V19C8.5 19.9282 8.13122 20.8185 7.47485 21.4748C6.81848 22.1312 5.92826 22.5 5 22.5C4.07174 22.5 3.18151 22.1312 2.52513 21.4748C1.86875 20.8185 1.5 19.9282 1.5 19Z" stroke="white" stroke-width="2" stroke-linecap="round" stroke-linejoin="round"/>
<path d="M1.5 12C1.5 11.0718 1.86875 10.1815 2.52513 9.52513C3.18151 8.86875 4.07174 8.5 5 8.5H8.5V15.5H5C4.07174 15.5 3.18151 15.1312 2.52513 14.4748C1.86875 13.8185 1.5 12.9282 1.5 12Z" stroke="white" stroke-width="2" stroke-linecap="round" stroke-linejoin="round"/>
</svg>
