<svg width="17" height="24" viewBox="0 0 17 24" fill="none" xmlns="http://www.w3.org/2000/svg">
<path d="M3.14112 22.0557C2.85353 21.9408 2.55028 21.8824 2.25437 21.7971C2.21797 21.7866 2.18207 21.7742 2.14534 21.7653C1.97935 21.7253 1.98425 21.7251 1.9707 21.5643C1.94198 21.2207 1.90542 20.8775 1.87571 20.5341C1.84307 20.1624 1.81402 19.7902 1.78056 19.4187C1.73861 18.9529 1.68459 18.4881 1.65243 18.0216C1.62159 17.5715 1.57344 17.1234 1.53655 16.674C1.50734 16.3187 1.46621 15.9644 1.4334 15.6095C1.40337 15.2832 1.37823 14.9557 1.34869 14.6284C1.31931 14.2959 1.28797 13.9636 1.25778 13.6311C1.22514 13.276 1.19298 12.9209 1.16132 12.5658C1.12868 12.211 1.09522 11.8564 1.06486 11.5014C1.03662 11.1686 1.01459 10.8354 0.984885 10.5028C0.955179 10.1701 0.91764 9.83777 0.88614 9.50511C0.854965 9.16692 0.826403 8.82856 0.796045 8.49003C0.765687 8.1515 0.733207 7.81415 0.702849 7.47595C0.659325 6.99332 0.616672 6.51068 0.574889 6.02804C0.55008 5.74529 0.523802 5.46254 0.502911 5.17946C0.492792 5.04244 0.502911 5.03993 0.634462 5.04295C0.846315 5.04797 1.05817 5.05037 1.27002 5.05015C2.57987 5.05015 3.88973 5.04981 5.19958 5.04914C5.74276 5.04831 6.2861 5.03775 6.82945 5.03826C7.75765 5.03926 8.68585 5.0535 9.61389 5.04646C10.1409 5.04261 10.6679 5.03189 11.195 5.03893C12.8251 5.0607 14.4555 5.04362 16.0859 5.05065C16.1945 5.054 16.3032 5.04947 16.4111 5.03708C16.4813 5.0272 16.5065 5.05769 16.4986 5.13424C16.4602 5.51056 16.4246 5.88728 16.3917 6.26439C16.3632 6.58617 16.3403 6.90845 16.3119 7.23022C16.2781 7.61314 16.2399 7.99572 16.2057 8.37864C16.1768 8.70008 16.1515 9.02186 16.124 9.34347C16.1002 9.61494 16.0756 9.88641 16.0501 10.1579C16.0127 10.5515 15.9727 10.9451 15.9359 11.3386C15.8903 11.8264 15.8451 12.314 15.8028 12.8019C15.7465 13.4512 15.6954 14.1009 15.6378 14.75C15.599 15.188 15.5505 15.6251 15.5105 16.0629C15.4805 16.3901 15.4591 16.7179 15.4302 17.0448C15.3976 17.4056 15.361 17.7651 15.3285 18.1266C15.2983 18.4591 15.2721 18.7921 15.2428 19.1247C15.2151 19.4408 15.1857 19.7566 15.1568 20.0725C15.1118 20.5663 15.0649 21.0608 15.0225 21.5541C15.0086 21.716 15.0145 21.7192 14.8519 21.765C14.3827 21.8966 13.9128 22.0259 13.4431 22.1561C12.8163 22.3298 12.1896 22.5034 11.5628 22.6769L8.67949 23.4735C8.55872 23.5082 8.43106 23.5088 8.30997 23.4753C7.45897 23.2385 6.60802 23.0017 5.75712 22.765C5.59554 22.7202 5.43216 22.6822 5.2696 22.6412C5.06689 22.6385 4.88441 22.5464 4.69198 22.4991C4.16953 22.3708 3.64774 22.241 3.14112 22.0557Z" fill="white"/>
<path d="M13.3455 1.90276C13.3599 2.00471 13.413 2.04066 13.4541 2.08423C13.7532 2.40099 14.0496 2.7221 14.3566 3.02949C14.4639 3.13842 14.5052 3.25018 14.4995 3.40899C14.4886 3.71399 14.4995 4.01898 14.4959 4.32289C14.4941 4.4854 14.4829 4.49826 14.3376 4.49847C13.4416 4.50051 12.5456 4.50051 11.6496 4.49847C11.5078 4.49847 11.5042 4.49434 11.503 4.34358C11.5004 4.01724 11.5004 3.69082 11.503 3.36433C11.504 3.2151 11.5076 3.21184 11.6534 3.21184C11.9501 3.21184 12.2469 3.21467 12.5425 3.21598C12.5739 3.21598 12.6109 3.22709 12.6287 3.18569C12.6465 3.1443 12.6174 3.11772 12.5949 3.09311C12.3641 2.84272 12.1336 2.59299 11.9034 2.34391C11.8095 2.24217 11.7163 2.13935 11.6184 2.04218C11.5805 2.00761 11.5503 1.96392 11.5302 1.91448C11.51 1.86504 11.5005 1.81117 11.5022 1.75702C11.506 1.38667 11.506 1.01632 11.5001 0.647055C11.4983 0.529415 11.5414 0.499569 11.6397 0.500005C12.5423 0.503055 13.4448 0.501748 14.3473 0.503926C14.491 0.503926 14.4983 0.515472 14.4981 0.659909C14.4981 1.02242 14.4967 1.38514 14.4933 1.74787C14.492 1.90036 14.489 1.90189 14.3466 1.90254C14.0173 1.90363 13.6883 1.90276 13.3455 1.90276Z" fill="#FEFEFE"/>
<path d="M9.34938 1.9227C9.33936 1.98264 9.3655 2.0075 9.38986 2.02951C9.75069 2.35651 10.0565 2.74476 10.3943 3.09769C10.4231 3.12641 10.4457 3.16192 10.4604 3.20161C10.4752 3.2413 10.4817 3.28415 10.4796 3.32702C10.4796 3.66775 10.4808 4.00869 10.4877 4.34942C10.4894 4.4449 10.456 4.48022 10.3754 4.48392C10.3037 4.48632 10.2322 4.49853 10.1604 4.49853C9.35626 4.49984 8.55201 4.50027 7.7477 4.49984C7.5158 4.49984 7.50872 4.49875 7.50263 4.23323C7.49575 3.92912 7.50459 3.62502 7.5042 3.3207C7.5042 3.21584 7.56316 3.20756 7.63469 3.208C7.89018 3.20974 8.14566 3.21214 8.39977 3.20952C8.47445 3.20952 8.58234 3.25596 8.61595 3.17312C8.65054 3.08592 8.54205 3.03731 8.49076 2.98019C8.21425 2.67151 7.93675 2.3637 7.65179 2.06461C7.60849 2.02174 7.57436 1.96869 7.55189 1.90933C7.52941 1.84997 7.51917 1.7858 7.52189 1.72149C7.52405 1.37269 7.51815 1.02521 7.51855 0.67707C7.51855 0.505943 7.52208 0.501147 7.6681 0.500929C8.55745 0.499621 9.44679 0.499694 10.3361 0.501147C10.4753 0.501147 10.4806 0.506597 10.4822 0.65963C10.4857 1.01474 10.4798 1.37008 10.4977 1.72519C10.5065 1.89806 10.4977 1.89959 10.3322 1.90155C10.0706 1.90329 9.80905 1.90155 9.54768 1.90286C9.48361 1.90329 9.41836 1.88803 9.34938 1.9227Z" fill="#FEFFFE"/>
<path d="M3.50375 2.49726V0.757289C3.50375 0.713714 3.50375 0.670138 3.50375 0.626563C3.50572 0.549869 3.5365 0.503244 3.61127 0.504115H3.69019L6.29044 0.501065C6.31668 0.501065 6.34311 0.503244 6.36935 0.501065C6.46149 0.49235 6.49799 0.537015 6.49739 0.639417C6.49522 1.01656 6.49404 1.39349 6.49996 1.77042C6.50193 1.90289 6.43347 1.90355 6.34844 1.90311C5.91441 1.90137 5.48195 1.90159 5.04871 1.90093C5.00925 1.90269 4.96973 1.90203 4.93034 1.89897C4.82834 1.88633 4.78928 1.9347 4.79066 2.04691C4.79381 2.30836 4.79066 2.56873 4.78947 2.82975C4.78947 3.21103 4.78947 3.21234 5.12762 3.21103C5.52812 3.20951 5.92861 3.20537 6.32891 3.20297C6.49345 3.20297 6.49601 3.20297 6.4972 3.37945C6.49943 3.69131 6.49943 4.00302 6.4972 4.31459C6.49601 4.4671 6.49266 4.4708 6.35574 4.48148C6.23145 4.49128 6.10676 4.49869 5.98228 4.49891C5.2339 4.50036 4.48552 4.50036 3.73714 4.49891C3.69117 4.49891 3.6452 4.49891 3.59904 4.49739C3.53472 4.49739 3.50335 4.45838 3.50158 4.38845C3.50039 4.33768 3.5 4.28691 3.5 4.23593V2.49726H3.50375Z" fill="#FEFEFE"/>
<path d="M8.68605 10.4016C8.56658 10.3795 8.46506 10.4101 8.36289 10.4106C7.83015 10.4125 7.29758 10.4198 6.76485 10.4237C5.79742 10.4306 4.83004 10.437 3.86272 10.4428C3.70636 10.4438 3.70441 10.4445 3.67943 10.2765C3.59239 9.68785 3.50637 9.09912 3.42139 8.51029C3.40507 8.40158 3.40768 8.39772 3.51834 8.39705C3.73574 8.39588 3.95315 8.39873 4.1712 8.39856C5.51381 8.39772 6.85658 8.40794 8.19902 8.3927C9.88405 8.3736 11.5689 8.38952 13.2538 8.3721C13.4717 8.36992 13.4718 8.3721 13.4478 8.5922C13.418 8.86908 13.4017 9.14697 13.3858 9.42503C13.3695 9.71967 13.3414 10.0138 13.3223 10.3085C13.3171 10.3907 13.2686 10.4203 13.2045 10.448C12.9092 10.5743 12.6154 10.7041 12.3208 10.8319C11.2825 11.2817 10.2442 11.7317 9.20605 12.182C9.01166 12.2666 8.82331 12.3662 8.62011 12.4287C8.58534 12.4379 8.55549 12.4608 8.53704 12.4924C8.58698 12.5394 8.64802 12.5229 8.70123 12.5142C8.79916 12.4974 8.89595 12.4992 8.99371 12.4991L12.9074 12.4954C12.9347 12.4954 12.9618 12.4954 12.989 12.4954C13.1309 12.4977 13.1359 12.5018 13.124 12.6493C13.0818 13.1597 13.0362 13.6698 12.9954 14.1803C12.9507 14.7413 12.9112 15.3026 12.8663 15.8636C12.8386 16.2076 12.8035 16.5504 12.7744 16.8951C12.7467 17.2224 12.7208 17.5499 12.6969 17.8777C12.6768 18.15 12.6564 18.4224 12.6432 18.6951C12.6383 18.7939 12.5875 18.8251 12.505 18.8479C11.936 19.0042 11.3676 19.1628 10.7998 19.3236C10.1746 19.5013 9.55027 19.6829 8.92565 19.8629C8.82168 19.8927 8.71869 19.9256 8.61391 19.9522C8.52907 19.973 8.44032 19.9697 8.35717 19.9427C7.71345 19.7481 7.06941 19.5549 6.42503 19.3629C5.80172 19.1768 5.17807 18.9922 4.55508 18.805C4.42288 18.7651 4.42451 18.7611 4.41374 18.6261C4.36129 17.9935 4.30868 17.3608 4.25591 16.7281C4.22963 16.4058 4.20694 16.0834 4.18246 15.7609C4.17414 15.651 4.1761 15.645 4.27909 15.6437C4.47494 15.6418 4.6708 15.6437 4.86666 15.6437C5.24711 15.6437 5.62757 15.6437 6.00818 15.6437C6.1652 15.6437 6.1621 15.6453 6.17434 15.8112C6.20698 16.25 6.24403 16.6885 6.27406 17.1276C6.28059 17.221 6.33363 17.2527 6.40578 17.2705C6.94259 17.4018 7.46896 17.5728 8.003 17.7147C8.07122 17.7328 8.1414 17.7463 8.20653 17.773C8.42328 17.8614 8.63088 17.8499 8.85482 17.7753C9.44631 17.578 10.0443 17.4006 10.6394 17.2143C10.7714 17.1731 10.7667 17.1711 10.775 17.0316C10.8041 16.5423 10.8374 16.0532 10.8669 15.5641C10.8844 15.2749 10.8996 14.9854 10.9123 14.6957C10.9193 14.5361 10.9157 14.5353 10.7514 14.5353C9.26187 14.5353 7.77243 14.5358 6.28304 14.5368C5.57109 14.5368 4.85904 14.5368 4.14688 14.5368C3.99525 14.5368 3.9933 14.5368 3.9902 14.3802C3.9791 13.8106 3.91316 13.2455 3.89569 12.677C3.88998 12.4899 3.89178 12.4954 4.05613 12.4257C4.65219 12.1721 5.24728 11.9163 5.84138 11.6584C6.58058 11.3379 7.31847 11.0145 8.05784 10.6946C8.23737 10.6168 8.4205 10.5476 8.60167 10.4734C8.62876 10.4622 8.66255 10.4562 8.68605 10.4016Z" fill="#130160"/>
</svg>
