<svg width="17" height="24" viewBox="0 0 17 24" fill="none" xmlns="http://www.w3.org/2000/svg">
<g clip-path="url(#clip0_2502_828)">
<path d="M8.43727 23.5C8.41765 23.4879 8.39946 23.4704 8.37824 23.4644C7.64707 23.2575 6.91567 23.0513 6.18403 22.8457C5.60147 22.6815 5.01891 22.5169 4.43636 22.352C3.71393 22.1476 2.99168 21.9428 2.2696 21.7378C2.16697 21.7087 2.06452 21.6799 1.95752 21.6499C1.95048 21.5823 1.94263 21.517 1.93701 21.4517C1.90039 21.0277 1.86395 20.6036 1.82769 20.1795C1.78073 19.6383 1.73347 19.0971 1.68592 18.5559C1.63551 17.9848 1.5846 17.4136 1.53318 16.8424C1.47968 16.2383 1.42638 15.6341 1.3733 15.03C1.34432 14.6963 1.31918 14.3624 1.28984 14.0287C1.25917 13.6799 1.22457 13.3314 1.19354 12.9826C1.17116 12.7302 1.1527 12.4774 1.13112 12.2248C1.10767 11.9542 1.08163 11.6837 1.05783 11.4131C1.03402 11.1425 1.01226 10.8719 0.988456 10.6015C0.958941 10.2647 0.928001 9.92802 0.898308 9.59127C0.880475 9.39561 0.86487 9.19978 0.84775 9.00476C0.819039 8.67697 0.789346 8.34937 0.760813 8.02168C0.735579 7.73305 0.71186 7.44433 0.686359 7.15569C0.657201 6.82501 0.62626 6.49415 0.597192 6.16374C0.572849 5.89024 0.549933 5.61656 0.52675 5.34297C0.517833 5.2441 0.509898 5.14514 0.5 5.03322C0.539501 5.03168 0.570442 5.02933 0.601383 5.02933C1.78332 5.02818 2.96519 5.02715 4.14701 5.02625C8.05495 5.02625 11.9629 5.0264 15.8707 5.0267C16.0549 5.0267 16.239 5.02896 16.423 5.0306C16.4463 5.0306 16.4695 5.03313 16.4993 5.03485C16.4993 5.06204 16.501 5.08506 16.4993 5.1079C16.4748 5.38756 16.4492 5.66704 16.425 5.9467C16.3884 6.37072 16.3531 6.79474 16.3163 7.21868C16.2936 7.4803 16.2685 7.74166 16.245 8.00311C16.216 8.32778 16.1874 8.65251 16.159 8.9773C16.1209 9.41011 16.0831 9.84295 16.0454 10.2758C16.0149 10.6277 15.9859 10.9797 15.9551 11.3315C15.9189 11.7465 15.881 12.1612 15.8447 12.5761C15.821 12.8467 15.7996 13.1175 15.7757 13.3881C15.7468 13.7158 15.7154 14.0432 15.6865 14.3709C15.6557 14.7227 15.6276 15.0747 15.5967 15.4264C15.5677 15.757 15.5359 16.0879 15.5067 16.4183C15.4825 16.6918 15.4612 16.9656 15.437 17.2391C15.408 17.5699 15.3771 17.9006 15.3473 18.2312C15.3308 18.4146 15.3146 18.5979 15.2986 18.7813C15.268 19.1331 15.2376 19.4849 15.2076 19.8367C15.1835 20.1163 15.1595 20.396 15.1354 20.6757C15.1143 20.9161 15.092 21.1565 15.0707 21.3969C15.0651 21.4604 15.0596 21.5238 15.0577 21.5867C15.0564 21.6332 15.0376 21.6548 14.9923 21.6674C14.5118 21.8003 14.0317 21.9347 13.552 22.0705C12.5205 22.3612 11.4892 22.6522 10.4579 22.9435C9.84102 23.1173 9.22384 23.2907 8.60633 23.4638C8.57842 23.4716 8.55283 23.4879 8.52608 23.5H8.43727ZM5.67167 10.4674H5.86846C6.80097 10.4678 7.73348 10.4682 8.66598 10.4686C9.98755 10.4686 11.3091 10.4686 12.6307 10.4686C12.8416 10.4686 13.0525 10.4686 13.2632 10.4665C13.3469 10.4658 13.352 10.4585 13.358 10.3728C13.3663 10.255 13.3738 10.1379 13.3842 10.0207C13.4088 9.74405 13.4352 9.46793 13.4603 9.19099C13.4791 8.98373 13.4978 8.77639 13.5147 8.56895C13.5185 8.52228 13.5153 8.47507 13.5153 8.42495H3.46925C3.64991 10.4855 3.82967 12.5369 4.01032 14.5981H10.9576C10.8794 15.4836 10.8022 16.3574 10.7248 17.2352C10.6702 17.2498 10.6219 17.2624 10.5733 17.2755C9.92306 17.4531 9.27288 17.6308 8.62274 17.8085C8.53892 17.8314 8.45805 17.8422 8.36959 17.8175C7.79304 17.6543 7.21426 17.4967 6.63628 17.3377C6.51376 17.3039 6.39161 17.2686 6.26499 17.2328C6.2169 16.6905 6.16934 16.1533 6.12232 15.6211C5.98973 15.6004 4.17198 15.6075 4.10635 15.6282C4.10635 15.6474 4.10484 15.6681 4.10635 15.6884C4.13667 16.0403 4.16722 16.3922 4.19801 16.7441C4.22851 17.0929 4.25915 17.4417 4.28995 17.7904C4.31782 18.1092 4.34579 18.428 4.37385 18.7468C4.37947 18.8102 4.39168 18.8219 4.45267 18.8389C4.664 18.8985 4.87533 18.9581 5.08665 19.0177C5.50359 19.1351 5.9206 19.2524 6.33766 19.3696C6.80329 19.5007 7.26886 19.6319 7.73437 19.7633C7.95425 19.8254 8.17378 19.889 8.39367 19.9513C8.45118 19.9676 8.50753 19.9755 8.56852 19.9581C9.06197 19.8177 9.55623 19.6802 10.05 19.5413C10.8749 19.3088 11.6997 19.0762 12.5244 18.8435C12.613 18.8185 12.612 18.8187 12.6196 18.7305C12.6349 18.556 12.6514 18.3817 12.6673 18.2073C12.6897 17.9609 12.7129 17.7146 12.7345 17.4682C12.7532 17.2547 12.7696 17.0411 12.788 16.8276C12.8101 16.575 12.8339 16.3225 12.8561 16.07C12.8797 15.8024 12.9019 15.5353 12.9255 15.2673C12.9493 14.9966 12.975 14.7261 12.9982 14.4554C13.0202 14.1999 13.0384 13.944 13.0612 13.6885C13.092 13.3427 13.1258 12.9972 13.1577 12.6515C13.1603 12.6225 13.1577 12.593 13.1577 12.5518C10.7199 12.5484 8.28916 12.5535 5.85108 12.5518C5.79178 11.8563 5.73231 11.1695 5.67167 10.4674Z" fill="white"/>
<path d="M12.0902 0.5C12.0906 1.51147 12.0909 2.52288 12.0911 3.53422C12.0911 3.55235 12.0889 3.56975 12.0878 3.58642C12.0235 3.60754 11.214 3.61406 11.0741 3.59385V2.10964L11.0545 2.10411C10.8289 2.45817 10.6034 2.81232 10.3679 3.1817C10.2386 2.99475 10.129 2.81341 10.0144 2.63552C9.89981 2.45763 9.78818 2.27829 9.66664 2.10085C9.64391 2.19944 9.6571 2.29795 9.65443 2.39555C9.65166 2.49524 9.65318 2.59492 9.653 2.69461C9.65282 2.79429 9.653 2.89398 9.653 2.99366C9.653 3.09335 9.653 3.19303 9.65247 3.29271C9.65193 3.3924 9.65247 3.49091 9.65247 3.58706C9.58006 3.60736 8.76142 3.61107 8.66066 3.59268C8.65924 3.55933 8.65638 3.52389 8.65638 3.48846C8.65603 2.52538 8.65579 1.56228 8.65567 0.599141C8.65567 0.566154 8.65273 0.533168 8.65112 0.500181H9.73771C9.75768 0.543046 9.77418 0.588085 9.79825 0.628412C9.96384 0.906442 10.131 1.18348 10.2976 1.46096C10.3204 1.49893 10.3426 1.53736 10.3704 1.58439C10.39 1.55829 10.4054 1.54107 10.4172 1.5215C10.5204 1.34931 10.6233 1.17689 10.7257 1.00422C10.8255 0.836391 10.9228 0.668014 11.0211 0.5H12.0902Z" fill="white"/>
<path d="M4.96247 0.5C4.96059 0.536249 4.95694 0.572498 4.95694 0.608113C4.95652 1.57155 4.95628 2.53499 4.95622 3.49843V3.58488C4.88373 3.60799 4.02791 3.61207 3.93375 3.59005V2.56719C3.62256 2.5652 3.31912 2.56665 3.00641 2.5661V3.58262C2.93811 3.60754 2.12143 3.61461 1.99179 3.59376C1.9882 3.57138 1.98585 3.54881 1.98474 3.52616C1.98474 2.52327 1.98522 1.52059 1.98617 0.518125C1.98617 0.512053 1.9867 0.506072 1.98706 0.5H3.0024V1.51805H3.92902V0.5H4.96247Z" fill="white"/>
<path d="M8.20562 0.500026C8.20686 0.566271 8.20918 0.632516 8.20927 0.69867C8.20927 0.943351 8.20909 1.18803 8.20874 1.43271V1.52986H7.32072C7.31751 1.56557 7.3127 1.59402 7.31261 1.62239C7.31166 2.24466 7.31095 2.86694 7.31047 3.48921V3.58482C7.24181 3.6082 6.49129 3.6169 6.2995 3.59759C6.28764 3.37167 6.29638 3.14358 6.29477 2.91584C6.29317 2.68811 6.29477 2.46273 6.29477 2.23617V1.54219C6.14149 1.52315 5.99365 1.53711 5.84653 1.53466C5.70146 1.53222 5.55638 1.53412 5.4007 1.53412C5.39856 1.49615 5.39535 1.46434 5.39526 1.43253C5.39481 1.15459 5.39526 0.876744 5.39481 0.598804C5.39481 0.565727 5.39196 0.53265 5.39044 0.499573L8.20562 0.500026Z" fill="white"/>
<path d="M13.6227 0.5C13.6211 0.533077 13.6183 0.566154 13.6183 0.599685C13.6183 1.22444 13.6183 1.84922 13.6183 2.47403C13.6183 2.50629 13.6211 2.53864 13.6229 2.58133H15.0442V3.5973H12.5932V3.50568C12.5932 2.53076 12.5932 1.55587 12.5932 0.581017C12.5932 0.55383 12.5903 0.526643 12.5887 0.5H13.6227Z" fill="white"/>
</g>
<defs>
<clipPath id="clip0_2502_828">
<rect width="16" height="23" fill="white" transform="translate(0.5 0.5)"/>
</clipPath>
</defs>
</svg>
